<svg width="88" height="91" fill="none" xmlns="http://www.w3.org/2000/svg"><path fill-rule="evenodd" clip-rule="evenodd" d="M24.727.28c-.277.153-.598.457-.714.677-.124.234-.43 4.038-.741 9.22-.644 10.712-.56 12.161.896 15.643.524 1.255.614 1.633.443 1.873a9.055 9.055 0 00-.512.883c-.294.573-.326.584-1.987.688-1.849.115-3.985.714-6.125 1.717-1.57.736-15.4 9.35-15.74 9.804-.133.177-.244.668-.247 1.092-.004.587.11.887.482 1.264.484.49.507.494 3.281.49 2.966-.004 4.706-.188 6.464-.686 1.467-.416 4.72-2.33 9.92-5.838 2.39-1.613 4.428-2.955 4.53-2.983.121-.034-.054 6.916-.497 19.762-.375 10.898-.688 20.201-.694 20.674-.006.504-.36.936-.851 1.044l-.223.05c-2.864.627-6.68 2.27-10.03 4.316-3.06 1.868-9.719 6.503-10.027 6.979-.74 1.145-.437 2.77.665 3.566.377.272.83.42 1.295.42l40.144.046c38.633.045 40.895.03 41.494-.28.945-.49 1.4-1.228 1.4-2.271 0-.515-.13-1.086-.313-1.368-.296-.457-3.905-3.092-8.35-6.096-3.659-2.472-6.961-3.853-10.444-4.37l-.371-.054a1.333 1.333 0 01-1.138-1.318c0-.632-.25-8.272-.553-16.978-.304-8.706-.553-15.888-.554-15.96 0-.073.685.199 1.524.603 2.892 1.395 4.385 1.589 13.677 1.77C87.85 44.796 88 44.761 88 43c0-.332-.104-.735-.231-.896-.625-.79-4.533-3.065-6.425-3.74-1.157-.413-1.461-.43-8.225-.489l-6.368-.055a1.635 1.635 0 01-1.125-.462c-.258-.25-.725-.546-1.036-.656-.512-.181-.683-.484-1.821-3.236-2.13-5.147-4.375-9.657-5.36-10.764-1.753-1.97-5.768-4.66-6.63-4.44-.71.18-1.311.94-1.297 1.636.014.66 5.565 12.61 6.673 14.366.771 1.223 2.62 3.216 3.65 3.938.699.489.74.571.728 1.434-.013.89-.086 1.008-2.707 4.337-3.132 3.979-4.899 6.443-5.694 7.943-.73 1.376-1.264 3.817-1.415 6.462-.136 2.39.042 2.924 1.051 3.149 1.113.247 1.414-.064 5.444-5.626 2.123-2.931 3.893-5.297 3.933-5.256.085.086-.654 22.813-.807 24.801-.06.799-.194 1.395-.319 1.428-1.904.507-5.485 1.841-6.983 2.603-2.38 1.209-5.06 2.963-5.341 3.496-.266.505.192 1.312.744 1.312.202 0 1.048-.465 1.88-1.033 3.384-2.308 7.543-4.073 11.057-4.694 2.401-.423 6.477-.283 8.69.3 3.177.835 5.395 2.06 11.402 6.298 4.198 2.962 4.593 3.36 3.77 3.805-.237.13-5.458.194-15.638.194H55.63a5.509 5.509 0 01-2.481-.59c-1.563-.788-2.637-1.623-6.486-5.044-6.043-5.372-8.96-7.093-13.76-8.12a2.543 2.543 0 01-2.008-2.4l-.51-14.861c-.318-9.265-.637-18.5-.71-20.522-.054-1.533 1.652-2.483 2.927-1.629l1.732 1.16c9.117 6.108 10.072 6.487 16.322 6.487 2.64 0 2.77-.018 3.268-.452.424-.37.52-.605.52-1.283 0-.456-.114-.969-.253-1.138-.414-.505-14.029-8.924-15.833-9.79-2.147-1.032-4.034-1.562-6.065-1.704-1.59-.111-1.634-.127-1.917-.694-.16-.32-.42-.73-.578-.913-.26-.302-.258-.63.032-3.483.984-9.715 1.112-14.128.47-16.235-.508-1.667-1.493-3.933-2.549-5.866C26.654.067 25.915-.372 24.727.281zm2.353 4.628c1.755 3.72 1.827 4.084 1.7 8.554-.062 2.12-.322 5.877-.579 8.35-.257 2.473-.47 4.564-.47 4.648-.002.084-.274.126-.605.094-.525-.051-.664-.19-1.097-1.09-.606-1.256-.992-2.763-1.249-4.87-.155-1.28-.103-3.1.266-9.272.253-4.224.46-8.057.461-8.518.002-.814.01-.826.29-.42.16.23.737 1.366 1.283 2.524zm-16.028 9.645c-1.48 1.445-3.091 3.789-3.77 5.482-.433 1.078-.445 1.19-.174 1.608.294.456.737.567 1.164.293.129-.083.53-.774.89-1.535a16.18 16.18 0 013.384-4.74c1.133-1.098 1.376-1.673.908-2.147-.49-.497-1.1-.233-2.402 1.04zm2.611 2.601c-1.497 1.465-2.566 3.057-3.203 4.773-.421 1.136-.436 1.273-.176 1.65.196.282.437.392.772.353.416-.05.62-.328 1.382-1.892.692-1.423 1.223-2.19 2.36-3.413.806-.867 1.466-1.664 1.466-1.77 0-.301-.705-.944-1.035-.944-.162 0-.867.56-1.566 1.243zm59.097 3.547c-.508.515-.334 1.066.635 2.013 1.067 1.044 1.905 2.223 2.423 3.41.463 1.06.946 1.352 1.563.942.248-.164.45-.468.45-.674 0-.986-2.176-4.35-3.503-5.415-.8-.642-1.146-.703-1.568-.276zm-19.646.783c.725.49 1.827 1.396 2.45 2.014.962.954 1.332 1.535 2.443 3.84.72 1.494 1.945 4.225 2.721 6.069 1.214 2.881 1.376 3.39 1.152 3.616-.223.226-.389.16-1.177-.47-1.996-1.6-2.771-2.714-4.78-6.873-2.879-5.965-4.33-9.086-4.222-9.086.053 0 .689.4 1.413.89zm17.507 1.686c-.336.109-.74.6-.74.898 0 .12.478.72 1.063 1.334.592.62 1.292 1.608 1.58 2.228.283.612.582 1.24.665 1.394.231.433 1.01.444 1.389.02.313-.351.315-.424.03-1.293-.729-2.225-3.045-4.885-3.987-4.58zm-42.238 5.752c.503.51.617 1.65.216 2.179-.662.873-1.79.956-2.55.185-.76-.77-.68-1.913.183-2.584.521-.405 1.648-.29 2.15.22zm-4.376 2.655c.121.27.197.514.168.54-.3.27-7.415 5.053-9.124 6.133-2.89 1.826-4.558 2.704-5.815 3.061-.943.269-7.436.633-7.208.405.05-.051 3.23-2.046 7.067-4.434 6.808-4.238 8.483-5.137 10.643-5.716 1.546-.414 1.688-.436 2.921-.46 1.046-.02 1.142.013 1.348.47zm9.961-.21c2.906.693 3.438.977 12.97 6.9l3.516 2.186c.602.375.336 1.304-.373 1.302-4.19-.01-5.63-.412-9.202-2.564-2.74-1.65-10.563-6.976-10.563-7.191 0-.105.086-.354.19-.553.156-.294.392-.362 1.249-.36.581.002 1.577.127 2.213.28zm-6.24 2.949c.002.334.292 8.996.646 19.247.354 10.251.645 19.237.646 19.97 0 .746-.58 1.365-1.327 1.41l-.471.029c-.99.06-1.823.084-1.852.055-.078-.079 1.257-39.996 1.36-40.711.073-.498.173-.61.543-.61.389 0 .454.089.456.61zm36.648 4.402c.505.582.546 1.077.133 1.61-.697.897-2.208.429-2.208-.685 0-1.017 1.44-1.659 2.075-.925zm16.69 1.536c1.199.477 3.414 1.682 4.16 2.263a.2.2 0 01-.123.357h-.061a990.03 990.03 0 01-6.841-.172c-6.705-.183-7.768-.332-10.18-1.429-1.23-.559-1.56-.869-1.396-1.305.102-.268.795-.292 6.723-.227 6.42.07 6.641.084 7.719.513zM62.1 42.398c.354.432-.238 2.798-1.176 4.702-.536 1.09-2.184 3.544-4.652 6.931l-2.991 4.106c-.234.32-.742.13-.707-.266.178-2.03.598-3.879 1.133-4.986.717-1.486 7.653-10.749 8.048-10.749.072 0 .227.118.345.262zm2.33 18.47c.252 7.367.46 13.872.46 14.456 0 .594-.468 1.084-1.061 1.112l-.252.012c-.722.034-1.335.02-1.363-.032-.028-.051.184-6.753.47-14.892.455-12.941.562-14.916.854-15.735.07-.198.363-.153.371.057l.012.318c.026.721.255 7.338.508 14.705zm9.038-10.908c-.112.076-.47.71-.798 1.409-.35.749-1.052 1.766-1.707 2.475-.857.929-1.084 1.29-.992 1.585.152.484.743.811 1.2.664.979-.315 3.702-4.24 3.702-5.336 0-.634-.895-1.142-1.405-.797zM31.16 76.992c4.616.65 8.416 2.665 13.237 7.02 2.126 1.92 4.22 3.73 5.34 4.618a.284.284 0 01-.177.507l-22.236.008c-20.716.008-23.08-.02-23.342-.285-.35-.356-.36-.483-.059-.864.371-.47 8.557-5.979 10.643-7.162 5.712-3.238 11.451-4.567 16.594-3.842z" fill="url(#paint0_linear_17_20)"/><defs><linearGradient id="paint0_linear_17_20" x1="0" y1="45.182" x2="88" y2="45.182" gradientUnits="userSpaceOnUse"><stop stop-color="#91CFFF"/><stop offset="1" stop-color="#0E66AA"/></linearGradient></defs></svg>