<svg width="88" height="91" viewBox="0 0 88 91" fill="none" xmlns="http://www.w3.org/2000/svg">
<path fill-rule="evenodd" clip-rule="evenodd" d="M24.7273 0.280896C24.4502 0.43319 24.1287 0.737401 24.0128 0.956943C23.8889 1.19128 23.5833 4.99468 23.2719 10.1775C22.6282 20.8892 22.7112 22.3381 24.1675 25.8199C24.6924 27.0747 24.7821 27.4535 24.6111 27.6931C24.4933 27.8583 24.2627 28.2558 24.0987 28.5761C23.8055 29.1493 23.7735 29.1604 22.1123 29.2638C20.2633 29.3786 18.1267 29.9777 15.9869 30.9813C14.4179 31.7171 0.586582 40.3319 0.246947 40.7847C0.114383 40.9615 0.00326658 41.4529 0.000123518 41.8768C-0.00431375 42.4644 0.109946 42.7645 0.481567 43.1412C0.965599 43.6316 0.988525 43.635 3.7633 43.6312C6.72942 43.6273 8.46939 43.4426 10.2275 42.9447C11.6944 42.5294 14.9472 40.615 20.1468 37.1068C22.5364 35.4943 24.5752 34.152 24.6774 34.1235C24.798 34.09 24.6231 41.0402 24.1805 53.886C23.805 64.7839 23.4925 74.0872 23.4862 74.5602C23.4795 75.0639 23.1266 75.4965 22.6346 75.6044L22.4116 75.6532C19.5483 76.2813 15.7326 77.9234 12.3816 79.9697C9.32116 81.8384 2.66304 86.4732 2.35539 86.949C1.6151 88.0937 1.91776 89.7185 3.01968 90.5148C3.39664 90.7873 3.84977 90.9342 4.31487 90.9347L44.4593 90.9813C83.0916 91.0262 85.3537 91.0109 85.9531 90.7003C86.8983 90.2108 87.3529 89.4731 87.3529 88.4299C87.3529 87.9148 87.2224 87.3437 87.0401 87.0619C86.7443 86.6045 83.1353 83.97 78.6893 80.9661C75.031 78.4942 71.7287 77.1127 68.2458 76.5966L67.8749 76.5417C67.2217 76.4449 66.7378 75.8844 66.7374 75.2241C66.7368 74.5921 66.4879 66.9519 66.184 58.2461C65.88 49.5403 65.6308 42.358 65.6301 42.2855C65.6293 42.213 66.3151 42.4848 67.1541 42.8894C70.0459 44.2844 71.5388 44.4777 80.8309 44.6591C87.8501 44.7962 88 44.7613 88 42.9998C88 42.6673 87.8959 42.2638 87.7689 42.1031C87.144 41.3127 83.2357 39.0379 81.3441 38.3633C80.1867 37.9505 79.8829 37.9325 73.1193 37.8741L66.7512 37.819C66.3308 37.8154 65.9279 37.65 65.6262 37.3571C65.3675 37.1062 64.9014 36.8108 64.5903 36.701C64.0776 36.5199 63.9069 36.2166 62.7686 33.4651C60.6396 28.318 58.3942 23.808 57.4095 22.7011C55.6562 20.7303 51.6409 18.0419 50.7784 18.2612C50.0697 18.4414 49.4677 19.2012 49.4825 19.8969C49.4964 20.5563 55.047 32.5062 56.1554 34.2634C56.9264 35.4857 58.7741 37.4788 59.8058 38.2009C60.5036 38.6897 60.5455 38.7721 60.5331 39.6345C60.5204 40.5249 60.4468 40.6427 57.8258 43.972C54.6937 47.9507 52.9273 50.4147 52.1317 51.915C51.4022 53.2907 50.8677 55.7319 50.717 58.3765C50.5809 60.7667 50.7593 61.301 51.7682 61.5256C52.8809 61.7732 53.1819 61.4621 57.2115 55.9003C59.3353 52.9689 61.1054 50.6034 61.1447 50.6435C61.23 50.7298 60.4912 73.4574 60.3384 75.4455C60.2771 76.244 60.1438 76.8397 60.019 76.8729C58.1152 77.3796 54.5341 78.7143 53.0356 79.4757C50.6563 80.6847 47.9766 82.4392 47.695 82.9721C47.4286 83.4766 47.8867 84.2839 48.4394 84.2839C48.6409 84.2839 49.4869 83.8192 50.3197 83.2512C53.7031 80.9434 57.8617 79.1779 61.3764 78.5575C63.777 78.1338 67.853 78.2741 70.066 78.8565C73.2435 79.6925 75.4612 80.9177 81.4682 85.1554C85.6664 88.1171 86.0605 88.5148 85.2389 88.9604C85.0006 89.0895 79.7802 89.1543 69.6001 89.1543H55.6296C54.768 89.1543 53.9183 88.9522 53.149 88.5642C51.5858 87.776 50.5116 86.9405 46.6632 83.52C40.6196 78.1482 37.7023 76.4265 32.9039 75.3994C31.763 75.1552 30.9346 74.1659 30.8946 72.9998L30.3847 58.1386C30.0667 48.8738 29.7477 39.639 29.6758 37.6171C29.6213 36.0839 31.3269 35.1342 32.6015 35.988L34.3344 37.1488C43.4515 43.2558 44.4057 43.635 50.6561 43.635C53.2961 43.635 53.4263 43.617 53.9244 43.183C54.3478 42.8139 54.4432 42.5779 54.4432 41.9004C54.4432 41.4437 54.3297 40.9314 54.1908 40.7618C53.7774 40.2572 40.162 31.8376 38.3581 30.9712C36.2108 29.9398 34.3241 29.4099 32.2933 29.2681C30.7034 29.157 30.659 29.1409 30.376 28.5741C30.2164 28.2547 29.9565 27.8439 29.798 27.6609C29.5372 27.3595 29.5399 27.0318 29.8295 24.1778C30.8144 14.4634 30.9421 10.0498 30.2998 7.94276C29.7917 6.27596 28.807 4.00955 27.7515 2.07732C26.6537 0.0675364 25.9141 -0.371735 24.7273 0.280896ZM27.08 4.90813C28.8351 8.62892 28.9073 8.99214 28.7791 13.4622C28.7183 15.582 28.4582 19.3393 28.201 21.8119C27.9438 24.2846 27.7319 26.3762 27.7303 26.4599C27.7286 26.5439 27.4566 26.586 27.1262 26.5536C26.6014 26.5025 26.4625 26.3646 26.0289 25.4647C25.4234 24.2081 25.037 22.7008 24.7804 20.5943C24.6247 19.3147 24.6767 17.4945 25.0459 11.3219C25.2986 7.09775 25.5061 3.26457 25.507 2.80375C25.5085 1.99021 25.5168 1.97822 25.7977 2.38453C25.9568 2.61456 26.5339 3.75029 27.08 4.90813ZM11.0515 14.5532C9.57223 15.9984 7.96077 18.3416 7.28168 20.0352C6.84923 21.1132 6.83721 21.2254 7.10752 21.6435C7.40222 22.0993 7.84484 22.2105 8.27174 21.9361C8.40098 21.8529 8.80126 21.1623 9.16123 20.4014C10.0112 18.6046 11.1415 17.0211 12.5465 15.6601C13.6789 14.5629 13.922 13.9878 13.4539 13.5135C12.9636 13.0168 12.3538 13.2807 11.0515 14.5532ZM13.663 17.1545C12.1656 18.6192 11.097 20.2114 10.4602 21.9267C10.0385 23.0627 10.0239 23.1998 10.2844 23.5765C10.4798 23.8592 10.7207 23.9695 11.0563 23.93C11.4721 23.8809 11.6761 23.6016 12.4378 22.0375C13.1304 20.6151 13.6614 19.8475 14.7979 18.625C15.6043 17.7575 16.2642 16.9606 16.2642 16.8542C16.2642 16.554 15.5588 15.9113 15.2294 15.9113C15.0669 15.9113 14.3621 16.4706 13.663 17.1545ZM72.76 20.7013C72.2521 21.216 72.4258 21.7671 73.3947 22.7144C74.4617 23.7576 75.2998 24.9365 75.8182 26.1241C76.2814 27.1847 76.7641 27.4758 77.3814 27.0659C77.6288 26.9017 77.8313 26.5982 77.8313 26.3916C77.8313 25.4057 75.6546 22.0412 74.3282 20.9768C73.5288 20.3353 73.1816 20.2744 72.76 20.7013ZM53.1144 21.4841C53.8388 21.9736 54.9414 22.8797 55.5647 23.4978C56.5263 24.4519 56.8957 25.0326 58.0068 27.3379C58.727 28.8318 59.9515 31.5628 60.7282 33.4068C61.9416 36.288 62.1037 36.7968 61.8802 37.0231C61.6567 37.2495 61.4912 37.1834 60.7034 36.5523C58.7066 34.9531 57.9316 33.8388 55.9235 29.6795C53.0445 23.7153 51.5937 20.5943 51.7008 20.5943C51.7538 20.5943 52.39 20.9948 53.1144 21.4841ZM70.6207 23.1704C70.2848 23.2788 69.8812 23.7691 69.8812 24.0684C69.8812 24.1883 70.3595 24.7885 70.9443 25.4018C71.5363 26.0229 72.2361 27.0105 72.5232 27.63C72.807 28.2421 73.1065 28.8693 73.189 29.0238C73.4201 29.4571 74.1986 29.4685 74.5778 29.0441C74.8914 28.6928 74.8931 28.6196 74.6083 27.751C73.879 25.5263 71.5633 22.8662 70.6207 23.1704ZM28.3825 28.9217C28.8858 29.4314 28.9995 30.5728 28.5994 31.1007C27.9372 31.9745 26.8094 32.0566 26.0489 31.2861C25.2885 30.5157 25.3695 29.373 26.232 28.702C26.753 28.2966 27.8795 28.4118 28.3825 28.9217ZM24.0067 31.5768C24.1285 31.8477 24.2043 32.091 24.1749 32.1173C23.8756 32.3874 16.76 37.1699 15.0506 38.25C12.1603 40.0764 10.4935 40.9538 9.23648 41.3112C8.29282 41.5797 1.80018 41.944 2.02795 41.7159C2.0788 41.6649 5.25884 39.6697 9.09486 37.2819C15.9027 33.0441 17.578 32.1446 19.7378 31.5664C21.2844 31.1522 21.4264 31.1299 22.6592 31.1061C23.7049 31.0859 23.8009 31.1194 24.0067 31.5768ZM33.968 31.3661C36.8742 32.0603 37.4065 32.3437 46.9377 38.2678L50.4542 40.4535C51.0564 40.8278 50.7898 41.7571 50.0808 41.7552C45.8907 41.7441 44.4514 41.3431 40.8786 39.1911C38.1399 37.5414 30.3155 32.2147 30.3155 32C30.3155 31.8949 30.4017 31.646 30.5069 31.4467C30.6622 31.1528 30.8977 31.0849 31.7549 31.0872C32.336 31.0887 33.332 31.2142 33.968 31.3661ZM27.7288 34.3157C27.7297 34.6504 28.0202 43.3118 28.3742 53.5631C28.7283 63.8143 29.0187 72.8003 29.0197 73.5322C29.0206 74.2794 28.4391 74.8979 27.6932 74.9431L27.2218 74.9716C26.2321 75.0313 25.3987 75.0562 25.3696 75.0268C25.2922 74.9483 26.6267 35.0313 26.7308 34.3157C26.8032 33.8185 26.9027 33.7069 27.2732 33.7069C27.6617 33.7069 27.7273 33.7946 27.7288 34.3157ZM64.3765 38.7178C64.8815 39.3005 64.9223 39.7954 64.5093 40.3274C63.8121 41.2254 62.3008 40.757 62.3008 39.6429C62.3008 38.6264 63.7409 37.9844 64.3765 38.7178ZM81.0668 40.254C82.265 40.7307 84.4803 41.9361 85.2267 42.5174C85.377 42.6344 85.2935 42.8754 85.103 42.8744L85.0418 42.8741C84.6859 42.8722 81.6076 42.7946 78.201 42.7019C71.4963 42.5191 70.4329 42.3698 68.0205 41.273C66.7913 40.7141 66.4602 40.4044 66.6253 39.9683C66.727 39.6997 67.4198 39.6761 73.3482 39.7407C79.7676 39.8106 79.9893 39.8254 81.0668 40.254ZM62.0999 42.3977C62.4537 42.8297 61.8623 45.1961 60.9244 47.1004C60.388 48.1893 58.7405 50.6438 56.2723 54.0314L53.281 58.1366C53.0471 58.4576 52.5389 58.2672 52.5736 57.8715C52.7515 55.8418 53.1717 53.992 53.7066 52.8846C54.4239 51.3989 61.3599 42.1364 61.755 42.1364C61.827 42.1364 61.9821 42.254 62.0999 42.3977ZM64.4292 60.8686C64.6824 68.2351 64.8894 74.74 64.8892 75.3239C64.8892 75.9183 64.4224 76.4078 63.8287 76.4359L63.5769 76.4479C62.8549 76.4821 62.2417 76.4679 62.2139 76.4164C62.1862 76.3649 62.3975 69.6634 62.6835 61.5243C63.1385 48.5827 63.2458 46.6083 63.5381 45.7892C63.6088 45.5909 63.9013 45.636 63.9091 45.8464L63.9208 46.1638C63.9472 46.885 64.1761 53.5022 64.4292 60.8686ZM73.4681 49.9599C73.3565 50.0356 72.9972 50.6697 72.6698 51.3689C72.3191 52.1179 71.6178 53.1348 70.9631 53.8439C70.1056 54.7726 69.8791 55.1347 69.9714 55.4294C70.1228 55.9128 70.7141 56.2403 71.1706 56.0934C72.1499 55.7785 74.8731 51.8537 74.8731 50.7572C74.8731 50.1227 73.9779 49.6147 73.4681 49.9599ZM31.1597 76.9918C35.776 77.6424 39.5756 79.6574 44.3966 84.0117C46.523 85.9322 48.6161 87.7427 49.7365 88.6304C49.9475 88.7975 49.8294 89.1369 49.5603 89.137L27.3243 89.1455C6.60758 89.1534 4.24363 89.1245 3.98239 88.86C3.63147 88.5043 3.62278 88.3771 3.92304 87.9963C4.29447 87.5252 12.4799 82.0171 14.5664 80.8344C20.2781 77.5963 26.0175 76.2673 31.1597 76.9918Z" fill="url(#paint0_linear_17_20)"/>
<defs>
<linearGradient id="paint0_linear_17_20" x1="-1.16041e-06" y1="45.1818" x2="88" y2="45.1818" gradientUnits="userSpaceOnUse">
<stop stop-color="#91CFFF"/>
<stop offset="1" stop-color="#0E66AA"/>
</linearGradient>
</defs>
</svg>
